<svg xmlns="http://www.w3.org/2000/svg" width="100" height="100" viewBox="0 0 100 100" fill="none">
  <path d="M20,20 C25,15 35,15 40,20 C45,25 45,35 40,40 C35,45 25,45 20,40 C15,35 15,25 20,20 Z" stroke="white" stroke-width="0.5" fill="none" />
  <path d="M60,60 C65,55 75,55 80,60 C85,65 85,75 80,80 C75,85 65,85 60,80 C55,75 55,65 60,60 Z" stroke="white" stroke-width="0.5" fill="none" />
  <path d="M30,70 L40,80 L50,70 L60,80 L70,70" stroke="white" stroke-width="0.5" fill="none" />
  <path d="M10,40 L20,50 L30,40 L40,50 L50,40" stroke="white" stroke-width="0.5" fill="none" />
  <path d="M80,30 C82,25 88,25 90,30 C92,35 92,40 90,45 C88,50 82,50 80,45 C78,40 78,35 80,30 Z" stroke="white" stroke-width="0.5" fill="none" />
  <path d="M15,75 C17,70 23,70 25,75 C27,80 27,85 25,90 C23,95 17,95 15,90 C13,85 13,80 15,75 Z" stroke="white" stroke-width="0.5" fill="none" />
  <!-- Maple leaf symbols scattered around -->
  <path d="M75,20 L80,15 L85,20 L80,25 Z" stroke="white" stroke-width="0.5" fill="none" />
  <path d="M35,50 L40,45 L45,50 L40,55 Z" stroke="white" stroke-width="0.5" fill="none" />
  <path d="M55,30 L60,25 L65,30 L60,35 Z" stroke="white" stroke-width="0.5" fill="none" />
  <path d="M25,85 L30,80 L35,85 L30,90 Z" stroke="white" stroke-width="0.5" fill="none" />
</svg> 