<svg width="192" height="192" viewBox="0 0 192 192" xmlns="http://www.w3.org/2000/svg">
  <defs>
    <linearGradient id="bgGradient" x1="0%" y1="0%" x2="100%" y2="100%">
      <stop offset="0%" style="stop-color:#dc2626;stop-opacity:1" />
      <stop offset="100%" style="stop-color:#b91c1c;stop-opacity:1" />
    </linearGradient>
    <linearGradient id="leafGradient" x1="0%" y1="0%" x2="100%" y2="100%">
      <stop offset="0%" style="stop-color:#fbbf24;stop-opacity:1" />
      <stop offset="100%" style="stop-color:#f59e0b;stop-opacity:1" />
    </linearGradient>
    <filter id="shadow" x="-20%" y="-20%" width="140%" height="140%">
      <feDropShadow dx="2" dy="4" stdDeviation="3" flood-color="#000000" flood-opacity="0.3"/>
    </filter>
  </defs>
  
  <!-- Background circle with gradient -->
  <circle cx="96" cy="96" r="92.16" fill="url(#bgGradient)" stroke="#ffffff" stroke-width="3.84" filter="url(#shadow)"/>
  
  <!-- Maple leaf -->
  <g transform="translate(96, 96) scale(0.15360000000000001)">
    <path d="M0,-50 C-15,-35 -25,-20 -25,0 C-25,20 -15,35 0,50 C15,35 25,20 25,0 C25,-20 15,-35 0,-50 Z" 
          fill="url(#leafGradient)" stroke="#ffffff" stroke-width="3"/>
    <path d="M-15,-25 L-15,25 M15,-25 L15,25 M-25,0 L25,0" 
          stroke="#ffffff" stroke-width="2" opacity="0.8"/>
  </g>
  
  <!-- Text "CC" for CanCitizenTest -->
  <text x="50%" y="75%" text-anchor="middle" fill="white" 
        font-family="Arial, sans-serif" font-size="48" font-weight="bold" 
        opacity="0.9" filter="url(#shadow)">
    CC
  </text>
</svg>